<?xml version="1.0" standalone="no"?><!DOCTYPE svg PUBLIC "-//W3C//DTD SVG 1.1//EN" "http://www.w3.org/Graphics/SVG/1.1/DTD/svg11.dtd"><svg t="1741259180176" class="icon" viewBox="0 0 1024 1024" version="1.1" xmlns="http://www.w3.org/2000/svg" p-id="2233" xmlns:xlink="http://www.w3.org/1999/xlink" width="128" height="128"><path d="M979.968 219.0336c-10.0864-5.0176-14.592 4.5056-20.5824 9.3184-1.9456 1.6896-3.7888 3.584-5.4784 5.4784-14.848 16.0256-32.0512 26.3168-54.784 25.088-32.9216-1.8944-61.1328 8.6016-86.016 33.9456-5.2224-31.2832-22.9376-49.92-49.664-61.9008-14.1312-6.1952-28.2112-12.4416-37.9904-26.0608-6.9632-9.5232-8.8576-20.2752-12.2368-30.8224-2.0992-6.4512-4.2496-12.9024-11.6736-14.08-7.8848-1.1776-11.008 5.4784-14.1312 11.008-12.3904 22.6816-17.2032 48.0256-16.896 73.3696 1.1264 57.088 25.2928 102.7072 73.3184 135.2192 5.4784 3.84 6.912 7.424 5.2736 12.9024-3.3792 11.264-7.168 22.016-10.5472 33.2288-2.1504 7.168-5.4784 8.8576-13.1584 5.7344a217.344 217.344 0 0 1-69.2736-47.104c-34.1504-32.9728-65.024-69.5296-103.424-97.9456a511.0784 511.0784 0 0 0-27.5456-18.8928c-39.168-38.2464 5.2736-69.5296 15.5648-73.3696 10.752-3.7888 3.7888-17.2032-31.0784-16.9472-34.6624 0-66.4576 11.7248-107.0592 27.2384-5.9904 2.4064-12.1856 4.096-18.432 5.4784a385.9968 385.9968 0 0 0-114.8928-4.0448c-75.0592 8.3456-135.0144 43.9808-179.2 104.6528C37.1712 383.488 24.4736 466.3296 39.7824 552.8576c16.0256 91.0336 62.3616 166.5536 133.8368 225.3312C247.5008 839.3728 332.8 869.2736 430.08 863.5392c59.0336-3.3792 124.7232-11.264 198.8096-74.0864 18.6368 9.3184 38.2464 12.9024 70.9632 15.7696 25.088 2.3552 49.2544-1.2288 67.8912-5.0176 29.3888-6.2464 27.2384-33.2288 16.6912-38.5024-85.76-39.936-66.8672-23.6544-84.1216-36.8128 43.776-51.6096 109.4656-105.3696 135.0144-279.3472 1.9456-13.824 0.256-22.4256 0-33.6896 0-6.656 1.4336-9.5232 9.1136-10.24 21.504-2.1504 42.496-8.6016 61.6448-18.944 55.7056-30.3104 77.9264-80.2304 83.4048-140.2368 0.7168-9.0624 0-18.6368-9.7792-23.3984h0.2048zM495.2576 757.9136c-83.1488-65.536-123.5456-87.04-140.288-86.016-15.5136 0.9216-12.9024 18.5856-9.3184 30.3104 3.584 11.4688 8.3968 19.3536 14.848 29.3888 4.5056 6.656 7.6288 16.7424-4.608 24.1664-26.7264 16.6912-73.3184-5.5296-75.4688-6.7072-54.272-32.0512-99.6352-74.0864-131.4304-131.9424a401.7152 401.7152 0 0 1-51.6096-178.688c-0.7168-15.5648 3.7888-20.8384 18.8928-23.7056a193.024 193.024 0 0 1 60.928-1.6384c84.8384 12.3904 157.184 50.3808 217.7024 110.592 34.6112 34.4576 60.672 75.264 87.7056 115.456 28.672 42.496 59.4944 82.944 98.6624 116.1216 13.824 11.7248 24.8832 20.5824 35.328 27.0336-32 3.584-85.248 4.3008-121.6-24.6272l0.256 0.256z m39.936-256.9216a12.288 12.288 0 0 1 12.1344-12.1856c6.7072 0 12.1856 5.5296 12.1856 12.1856a12.288 12.288 0 0 1-12.3904 12.1856 12.032 12.032 0 0 1-12.1856-11.9296v-0.256h0.2048z m123.7504 63.7952a79.872 79.872 0 0 1-23.3984 6.4512 51.8656 51.8656 0 0 1-31.7952-10.0352c-10.752-9.0624-18.6368-14.336-22.016-30.3104a64.1024 64.1024 0 0 1 0.7168-23.4496c2.8672-13.1072-0.2048-21.248-9.5232-28.928-7.424-6.144-16.9984-7.8848-27.4944-7.8848a18.432 18.432 0 0 1-10.0352-3.072 10.24 10.24 0 0 1-5.376-6.144c-0.4608-1.3824-0.5632-2.816-0.4608-4.1984a10.3424 10.3424 0 0 1 1.28-3.9936c1.2288-2.1504 6.4512-7.424 7.68-8.3968 14.08-8.0896 30.5664-5.4784 45.6192 0.7168 14.08 5.7344 24.576 16.2816 39.936 31.0784 15.5136 17.92 18.3808 22.9376 27.2384 36.5568 6.912 10.5472 13.3632 21.504 17.664 33.9456 2.6112 7.68-0.7168 14.08-10.0352 17.92v-0.256z" fill="#4D6BFE" p-id="2234"></path></svg>